<?xml version="1.0" standalone="no"?>
<!DOCTYPE svg PUBLIC "-//W3C//DTD SVG 20010904//EN"
 "http://www.w3.org/TR/2001/REC-SVG-20010904/DTD/svg10.dtd">
<svg version="1.0" xmlns="http://www.w3.org/2000/svg"
 width="260.000000pt" height="260.000000pt" viewBox="0 0 260.000000 260.000000"
 preserveAspectRatio="xMidYMid meet">
<metadata>
Created by potrace 1.11, written by Peter Selinger 2001-2013
</metadata>
<g transform="translate(0.000000,260.000000) scale(0.100000,-0.100000)"
fill="#000000" stroke="none">
<path d="M1159 2595 c-2 -2 -28 -6 -58 -10 -115 -14 -271 -64 -391 -125 -293
-148 -527 -415 -638 -730 -50 -144 -66 -238 -66 -410 -1 -205 9 -274 63 -440
125 -378 441 -690 825 -815 155 -50 223 -60 406 -60 183 0 269 14 425 67 458
156 792 561 864 1048 6 36 8 135 6 220 -5 208 -35 334 -126 529 -161 342 -506
617 -880 700 -24 5 -57 13 -74 16 -32 8 -350 16 -356 10z m396 -38 c385 -86
700 -324 882 -667 60 -113 115 -283 131 -405 12 -86 7 -347 -7 -420 -19 -97
-76 -264 -118 -343 -188 -359 -506 -598 -903 -680 -142 -30 -395 -24 -538 12
-238 60 -440 174 -609 343 -180 182 -304 416 -354 668 -21 106 -18 388 5 495
83 390 346 723 707 898 97 46 225 86 344 107 104 17 365 13 460 -8z"/>
<path d="M620 1300 c0 -411 2 -470 15 -470 13 0 15 33 15 235 l0 235 325 0
325 0 0 -235 c0 -202 2 -235 15 -235 13 0 15 59 15 470 0 411 -2 470 -15 470
-13 0 -15 -31 -15 -215 l0 -215 -325 0 -325 0 0 215 c0 184 -2 215 -15 215
-13 0 -15 -59 -15 -470z"/>
<path d="M1898 1378 c-3 -340 -6 -398 -20 -428 -35 -74 -101 -110 -203 -110
-112 0 -184 45 -210 133 -8 27 -14 52 -14 55 1 4 1 26 0 50 -1 32 -5 42 -17
42 -14 0 -16 -10 -11 -73 5 -82 23 -129 61 -169 50 -53 82 -63 192 -63 94 0
104 2 149 30 35 21 56 45 74 80 l26 49 3 398 c3 348 1 398 -12 398 -13 0 -15
-52 -18 -392z"/>
</g>
</svg>
